<svg width="37" height="28" viewBox="0 0 37 28" fill="none" xmlns="http://www.w3.org/2000/svg">
<path d="M16.0898 19.3721C16.0898 23.5464 13.2154 26.7087 8.84122 26.7087C4.46706 26.7087 0.717773 23.1669 0.717773 16.8422C0.717773 8.99962 6.59165 2.29545 14.2152 1.03052V5.71079C9.84103 6.59624 6.59165 9.75859 6.59165 13.4269C7.34151 12.9209 8.34131 12.5414 9.966 12.5414C13.2154 12.5414 16.0898 14.9448 16.0898 19.3721ZM36.336 19.3721C36.336 23.5464 33.3365 26.7087 28.9624 26.7087C24.7132 26.7087 20.8389 23.1669 20.8389 16.8422C20.8389 8.99962 26.7128 2.29545 34.4613 1.03052V5.71079C30.0872 6.59624 26.8378 9.75859 26.8378 13.3004C27.5876 12.7944 28.7124 12.5414 30.2121 12.5414C33.4615 12.5414 36.336 14.9448 36.336 19.3721Z" fill="url(#paint0_linear_19207_1902)" stroke="url(#paint1_linear_19207_1902)" stroke-width="0.82833"/>
<defs>
<linearGradient id="paint0_linear_19207_1902" x1="36.1941" y1="12.1994" x2="0.847934" y2="12.5708" gradientUnits="userSpaceOnUse">
<stop stop-color="#7A87FB"/>
<stop offset="1" stop-color="#FFD49C"/>
</linearGradient>
<linearGradient id="paint1_linear_19207_1902" x1="0.717774" y1="1.44468" x2="39.2351" y2="27.1229" gradientUnits="userSpaceOnUse">
<stop stop-color="white"/>
<stop offset="0.294339" stop-color="white" stop-opacity="0"/>
</linearGradient>
</defs>
</svg>
